<svg viewBox="0 0 15 15" fill="none" xmlns="http://www.w3.org/2000/svg">
<path fill-rule="evenodd" clip-rule="evenodd" d="M4.4999 0C4.77604 0 4.99989 0.223853 4.99989 0.49999V2.49995C4.99989 2.77609 4.77604 2.99994 4.4999 2.99994C4.22377 2.99994 3.99991 2.77609 3.99991 2.49995V0.49999C3.99991 0.223853 4.22377 0 4.4999 0ZM0.646146 0.64647C0.841405 0.451212 1.15798 0.451212 1.35323 0.64647L2.8532 2.14644C3.04846 2.3417 3.04846 2.65827 2.8532 2.85353C2.65795 3.04879 2.34137 3.04879 2.14611 2.85353L0.646147 1.35356C0.450888 1.1583 0.450888 0.841728 0.646146 0.64647ZM0 4.49991C0 4.22377 0.223853 3.99992 0.49999 3.99992H2.49994C2.77608 3.99992 2.99993 4.22377 2.99993 4.49991C2.99993 4.77605 2.77608 4.9999 2.49994 4.9999H0.49999C0.223853 4.9999 0 4.77605 0 4.49991ZM11.9998 10.4998C11.9998 10.2236 12.2236 9.9998 12.4998 9.9998H14.4997C14.7758 9.9998 14.9997 10.2236 14.9997 10.4998C14.9997 10.7759 14.7758 10.9998 14.4997 10.9998H12.4998C12.2236 10.9998 11.9998 10.7759 11.9998 10.4998ZM10.4998 11.9998C10.7759 11.9998 10.9998 12.2236 10.9998 12.4997V14.4997C10.9998 14.7758 10.7759 14.9997 10.4998 14.9997C10.2237 14.9997 9.99979 14.7758 9.99979 14.4997V12.4997C9.99979 12.2236 10.2237 11.9998 10.4998 11.9998ZM12.1459 12.1462C12.3412 11.951 12.6577 11.951 12.853 12.1462L14.353 13.6462C14.5482 13.8415 14.5482 14.158 14.353 14.3533C14.1577 14.5485 13.8411 14.5485 13.6459 14.3533L12.1459 12.8533C11.9507 12.6581 11.9507 12.3415 12.1459 12.1462ZM7.76447 3.69938C8.19146 3.27238 8.35693 3.11008 8.51129 3.00522C9.18763 2.54577 10.0428 2.53677 10.6781 2.95401C10.8224 3.04875 10.9764 3.19911 11.3883 3.61099C11.8002 4.02287 11.9506 4.17694 12.0453 4.3212C12.4625 4.95653 12.4536 5.81168 11.9941 6.48802C11.8892 6.64238 11.7269 6.80785 11.2999 7.23484L10.6812 7.85354C10.486 8.0488 10.486 8.36538 10.6812 8.56064C10.8765 8.75589 11.1931 8.75589 11.3883 8.56064L12.007 7.94193L12.0499 7.89903C12.4196 7.5295 12.6561 7.29303 12.8213 7.04993C13.4965 6.05598 13.5313 4.7623 12.8812 3.77228C12.7226 3.53083 12.4915 3.29982 12.1401 2.94853L12.0954 2.9039L12.0508 2.85925C11.6995 2.50782 11.4685 2.27672 11.227 2.11816C10.237 1.46798 8.94333 1.50284 7.94937 2.17805C7.70628 2.34319 7.46981 2.57973 7.10029 2.94936L7.05738 2.99228L6.43867 3.61099C6.24341 3.80625 6.24341 4.12282 6.43867 4.31808C6.63393 4.51334 6.9505 4.51334 7.14576 4.31808L7.76447 3.69938ZM2.9916 7.05807L2.94868 7.10097C2.57904 7.4705 2.34251 7.70697 2.17736 7.95006C1.50215 8.94401 1.46729 10.2377 2.11747 11.2277C2.27603 11.4692 2.50713 11.7002 2.85855 12.0515L2.90321 12.0961L2.94784 12.1407C3.29912 12.4921 3.53014 12.7233 3.77159 12.8818C4.76162 13.532 6.05529 13.4972 7.04925 12.8219C7.29234 12.6568 7.52882 12.4203 7.89834 12.0506L7.94124 12.0077L8.55995 11.389C8.75521 11.1937 8.75521 10.8772 8.55995 10.6819C8.36469 10.4867 8.04811 10.4867 7.85286 10.6819L7.23415 11.3006C6.80716 11.7276 6.64169 11.8899 6.48733 11.9948C5.81099 12.4542 4.95584 12.4632 4.32051 12.046C4.17625 11.9512 4.02218 11.8009 3.6103 11.389C3.19842 10.9771 3.04806 10.8231 2.95332 10.6788C2.53608 10.0435 2.54508 9.18832 3.00453 8.51198C3.1094 8.35761 3.2717 8.19215 3.69869 7.76516L4.31739 7.14645C4.51265 6.95119 4.51265 6.63462 4.31739 6.43936C4.12214 6.2441 3.80556 6.2441 3.6103 6.43936L2.9916 7.05807Z" fill="current"/>
</svg>
