<svg  viewBox="0 0 85 28" fill="currentColor" xmlns="http://www.w3.org/2000/svg">
<path d="M61.7451 17.2433L66.1787 5.58512H69.252L60.5928 28.0002H57.6943L60.2803 21.0265L53.9219 5.58512H57.1025L61.7451 17.2433ZM8.30957 0.000164032C9.72768 0.0121382 10.9987 0.258504 12.1162 0.737469C13.2336 1.21643 14.1645 1.90687 14.9062 2.80485C15.6478 3.70275 16.1617 4.78735 16.4453 6.05387L13.1875 6.60954C13.0396 5.82654 12.7285 5.15619 12.2559 4.59587C11.7832 4.03558 11.2015 3.60417 10.5107 3.30485C9.82006 3.00562 9.07362 2.84812 8.27148 2.8361C7.49352 2.82413 6.7829 2.94067 6.14062 3.18962C5.49823 3.43868 4.98602 3.78671 4.60059 4.23454C4.21537 4.68228 4.02441 5.19973 4.02441 5.7863C4.02446 6.36094 4.19337 6.82591 4.53027 7.1779C4.86722 7.52992 5.28729 7.80984 5.78906 8.01579C6.29076 8.22169 6.7878 8.39147 7.28223 8.52555L11.1514 9.60856C11.6359 9.74022 12.186 9.91683 12.8037 10.1418C13.4219 10.3669 14.0188 10.6833 14.5957 11.0881C15.1726 11.4928 15.6497 12.0272 16.0254 12.6906C16.4011 13.3539 16.5908 14.1894 16.5908 15.2023C16.5908 16.2393 16.3768 17.1547 15.9502 17.9474C15.5236 18.7399 14.9393 19.4007 14.1953 19.9299C13.4512 20.459 12.598 20.8595 11.6309 21.13C10.6637 21.4006 9.6402 21.5343 8.56152 21.5343C7.05645 21.5343 5.6992 21.2781 4.49219 20.7658C3.28498 20.2533 2.29033 19.5202 1.50977 18.5695C0.729385 17.6189 0.225438 16.4861 0 15.174L3.16113 14.6945C3.48112 15.959 4.14984 16.944 5.16797 17.6457C6.18604 18.3473 7.3765 18.6994 8.73633 18.6994C9.57748 18.6994 10.3532 18.5669 11.0635 18.3058C11.7737 18.0448 12.3463 17.6663 12.7754 17.173C13.2042 16.6798 13.4199 16.0856 13.4199 15.3937C13.4199 15.0203 13.354 14.6898 13.2256 14.4025C13.0972 14.1154 12.9156 13.8665 12.6855 13.6535C12.4553 13.4403 12.1759 13.2553 11.8535 13.0949C11.5312 12.9345 11.1773 12.7977 10.792 12.6828L5.41992 11.1125C4.89645 10.9616 4.36367 10.7643 3.82324 10.5177C3.28274 10.2711 2.78529 9.9509 2.33203 9.55583C1.87872 9.16068 1.51217 8.66688 1.2334 8.07536C0.954731 7.48392 0.814466 6.77024 0.814453 5.92985C0.814453 4.65347 1.1464 3.5708 1.81055 2.68473C2.47474 1.79866 3.37187 1.12803 4.50391 0.673016C5.63589 0.218031 6.9037 -0.00698712 8.30957 0.000164032ZM76.8398 5.15348C78.413 5.15352 79.7778 5.5035 80.9316 6.20036C82.0854 6.89725 82.9752 7.8625 83.6055 9.09098C84.2332 10.3194 84.5478 11.7346 84.5479 13.3341C84.5479 14.9531 84.2304 16.3786 83.5977 17.6095C82.9626 18.8402 82.0687 19.8033 80.915 20.4953C79.7588 21.1874 78.4009 21.5343 76.8398 21.5343C75.2692 21.5343 73.9068 21.1846 72.7578 20.4855C71.6064 19.7862 70.7162 18.8204 70.0908 17.5871C69.4631 16.3538 69.1504 14.9361 69.1504 13.3341C69.1504 11.7129 69.4704 10.2853 70.1104 9.0568C70.7503 7.82842 71.6451 6.87101 72.7988 6.18376C73.9503 5.49645 75.2981 5.15348 76.8398 5.15348ZM22.2627 21.1027H19.2188V5.58512H22.2627V21.1027ZM27.9473 13.3586L34.1143 5.58512H53.209L43.8135 18.4211H52.8359L55.0586 21.1027H34.5215L27.9473 13.3586V21.1027H24.8447L24.8643 0.412273H27.9473V13.3586ZM31.4678 13.3439L38.6426 21.092L47.8955 8.26677H35.7314L31.4678 13.3439ZM76.8398 7.98942C75.8219 7.98942 74.9831 8.21663 74.3262 8.66911C73.6668 9.12173 73.1794 9.74966 72.8594 10.5519C72.5395 11.3541 72.3789 12.2806 72.3789 13.3341C72.3789 14.9626 72.7554 16.2628 73.5117 17.2375C74.2656 18.2122 75.3757 18.6984 76.8398 18.6984C78.345 18.6984 79.4672 18.2007 80.209 17.2023C80.9483 16.2037 81.3193 14.9147 81.3193 13.3341C81.3193 11.7082 80.9439 10.4124 80.1973 9.44255C79.4482 8.4727 78.3281 7.98947 76.8398 7.98942ZM22.2627 3.0363H19.2188V0.124187H22.2627V3.0363Z"/>
</svg>
